<svg id="Layer_1" data-name="Layer 1" xmlns="http://www.w3.org/2000/svg" viewBox="0 0 820 820"><defs><style>.cls-1,.cls-2{fill:#fff;}.cls-2{font-size:123px;font-family:DIN Condensed;font-weight:700;}.cls-3{letter-spacing:-6px;}.cls-4{fill:#40a4d8;}.cls-5{fill:#a364d9;}.cls-6{fill:#da3937;}.cls-7{fill:#f66420;}.cls-8{fill:#fcca2f;}</style></defs><title>logo</title><path class="cls-1" d="M21.14,26.49H6.63V14.68H48.2V26.49H33.69v75.77H21.14V26.49Z"/><path class="cls-1" d="M53.74,14.68H66.28V52.2h15.5V14.68H94.33v87.58H81.78v-39H66.28v39H53.74V14.68Z"/><path class="cls-1" d="M106.13,14.68h37.39V26.49H118.68V52.2h21.65V64H118.68V89.71h24.85v12.55H106.13V14.68Z"/><text class="cls-2" transform="translate(632.64 551.41)">TH<tspan class="cls-3" x="93.23" y="0">A</tspan><tspan x="136.53" y="0">T</tspan></text><path class="cls-1" d="M10.22,596.28h29L78,707.87h0.59l38.48-111.59h29.3V807H116.18V678.86h-0.59L85.7,769.44H70.6L41,678.86H40.41V807H10.22V596.28Z"/><path class="cls-1" d="M208.24,596.28H233.4L280.46,807H250.27l-8.88-45.29H200.25L191.37,807H161.18ZM221,657h-0.59l-14.8,76.37h30.19Z"/><path class="cls-1" d="M295.26,596.28H340q25.75,0,39.37,14.36t13.62,40.11v98.57q0,29.6-14.36,43.66T337.3,807h-42V596.28Zm30.19,182.34h13.91q12.72,0,18.06-6.36t5.33-20V650.74q0-12.43-5-19.24t-18.35-6.81H325.46V778.62Z"/><path class="cls-1" d="M421.36,596.28h90V624.7H451.55v61.86h52.1V715h-52.1v61.86h59.79V807h-90V596.28Z"/><path class="cls-1" d="M683.61,759.67a47.9,47.9,0,0,1-3.85,19.24,49.45,49.45,0,0,1-26,26,48.55,48.55,0,0,1-37.89,0,49.45,49.45,0,0,1-26-26,47.83,47.83,0,0,1-3.85-19.24V596.28h30.19V756.71q0,11.25,5.33,16.58a19.31,19.31,0,0,0,26.64,0q5.33-5.33,5.33-16.58V596.28h30.19V759.67Z"/><path class="cls-1" d="M809.7,657H779.51v-6.81a32.23,32.23,0,0,0-4.88-17.91q-4.88-7.55-16.43-7.55A19.82,19.82,0,0,0,748,627.06a17.49,17.49,0,0,0-6.22,6.07,25.38,25.38,0,0,0-3.11,8.58,57,57,0,0,0-.89,10.21,104.28,104.28,0,0,0,.44,10.51,18.6,18.6,0,0,0,2.22,7.4,17,17,0,0,0,5.18,5.48,47.16,47.16,0,0,0,9.32,4.74L778,689.22a57.4,57.4,0,0,1,16.28,9,36.75,36.75,0,0,1,9.62,12.14,51.53,51.53,0,0,1,4.59,16,160.25,160.25,0,0,1,1.18,20.57A108.43,108.43,0,0,1,807,771.66a52.11,52.11,0,0,1-8.73,19.54,41.94,41.94,0,0,1-16.13,12.88q-10.07,4.73-24.57,4.74A53.79,53.79,0,0,1,737.18,805a48.63,48.63,0,0,1-27.08-26.34,49.11,49.11,0,0,1-4-19.83V747.54H736.3V757A24.66,24.66,0,0,0,741.18,772q4.89,6.66,16.43,6.66,7.69,0,12-2.22a15.29,15.29,0,0,0,6.51-6.22,25.57,25.57,0,0,0,2.81-9.92q0.59-5.92.59-13a127.89,127.89,0,0,0-.59-13.62A21.65,21.65,0,0,0,776.4,725a15.37,15.37,0,0,0-5.33-5.33,71.23,71.23,0,0,0-9-4.44l-21.61-8.88q-19.54-8-26.2-21.16t-6.66-33a76.47,76.47,0,0,1,3.26-22.5,52.45,52.45,0,0,1,9.62-18.35,45.92,45.92,0,0,1,16.13-12.28q9.77-4.58,22.79-4.59A50.11,50.11,0,0,1,780,598.65a51.21,51.21,0,0,1,16,11,48.72,48.72,0,0,1,10.21,15.24,44.22,44.22,0,0,1,3.55,17.32V657Z"/><path class="cls-4" d="M6.41,211.56q0-16.55,5.77-29.26a61,61,0,0,1,15.21-21A65.6,65.6,0,0,1,48.57,148.8a68.3,68.3,0,0,1,47.36,0,65.72,65.72,0,0,1,21.17,12.51,61.12,61.12,0,0,1,15.21,21q5.77,12.7,5.77,29.26v13.86H98.81V211.56q0-14.24-7.89-21a27.87,27.87,0,0,0-18.67-6.74,27.85,27.85,0,0,0-18.67,6.74q-7.9,6.74-7.89,21V356.32q0,14.25,7.89,21A27.82,27.82,0,0,0,72.25,384a27.84,27.84,0,0,0,18.67-6.74q7.89-6.73,7.89-21V304.73H67.63V270.08h70.46v86.24q0,16.95-5.77,29.45a61.49,61.49,0,0,1-15.21,20.79,65.5,65.5,0,0,1-21.17,12.51,68.32,68.32,0,0,1-47.36,0,65.38,65.38,0,0,1-21.17-12.51,61.41,61.41,0,0,1-15.21-20.79q-5.77-12.51-5.77-29.45V211.56Z"/><path class="cls-5" d="M216.23,146.88H249L310.17,421H270.9l-11.55-58.91H205.84L194.29,421H155Zm16.55,78.92H232l-19.25,99.33H252Z"/><path class="cls-6" d="M329.42,146.88h37.73L417.59,292h0.77l50-145.15h38.12V421H467.25V254.29h-0.77L427.6,372.1H408l-38.5-117.81h-0.77V421H329.42V146.88Z"/><path class="cls-7" d="M543.48,146.88h117v37H582.75V264.3h67.76v37H582.75v80.47h77.77V421h-117V146.88Z"/><path class="cls-8" d="M813,225.8H773.71v-8.85q0-13.47-6.35-23.29T746,183.84q-8.09,0-13.28,3.08a22.77,22.77,0,0,0-8.08,7.89,33,33,0,0,0-4,11.17,74.1,74.1,0,0,0-1.16,13.28,136.06,136.06,0,0,0,.58,13.67,24.21,24.21,0,0,0,2.89,9.63,22.06,22.06,0,0,0,6.74,7.12,61.33,61.33,0,0,0,12.13,6.16l30,11.93q13.08,5,21.17,11.74a47.79,47.79,0,0,1,12.51,15.79,67,67,0,0,1,6,20.79A208.24,208.24,0,0,1,813,342.84,141.14,141.14,0,0,1,809.52,375a67.8,67.8,0,0,1-11.36,25.41,54.55,54.55,0,0,1-21,16.75q-13.09,6.15-32,6.16a70,70,0,0,1-26.57-5A63.25,63.25,0,0,1,683.43,384a63.89,63.89,0,0,1-5.2-25.79V343.61H717.5v12.32a32.08,32.08,0,0,0,6.35,19.44q6.35,8.66,21.37,8.66,10,0,15.59-2.89a19.87,19.87,0,0,0,8.47-8.08,33.26,33.26,0,0,0,3.66-12.9q0.77-7.7.77-16.94a166.46,166.46,0,0,0-.77-17.71,28.17,28.17,0,0,0-3.27-11.16,20,20,0,0,0-6.93-6.93A92.68,92.68,0,0,0,751,301.65l-28.1-11.55q-25.41-10.39-34.07-27.53t-8.66-42.93a99.48,99.48,0,0,1,4.24-29.26,68.21,68.21,0,0,1,12.51-23.87,59.72,59.72,0,0,1,21-16q12.7-6,29.64-6A65.19,65.19,0,0,1,774.29,150a66.61,66.61,0,0,1,20.79,14.25A63.4,63.4,0,0,1,808.36,184,57.52,57.52,0,0,1,813,206.55V225.8Z"/></svg>